# xmcd CD database file generated by freedbAccess_ocx
#
# Track frame offsets:
#       150
#       72451
#       82148
#       98772
#       112374
#       121889
#       134684
#       153134
#       179335
#       197286
#       219513
#       235964
#       258807
#       275149
#       295697
#       314513
#       329776
#       342732
#
# Disc length: 4777 seconds
#
# Revision: 0
# Processed by: cddbd v1.5.1PL0 Copyright (c) Steve Scherf et al.
# Submitted via: CDnGo 2.00
#
DISCID=2312a712
DTITLE=Fred J Eaglesmith - The Official Bootleg Series Vol 2 Disc 2
DYEAR=2004
DGENRE=Country
TTITLE0=49 Tons
TTITLE1=Carter
TTITLE2=Crossroads Flea Market intro
TTITLE3=Bob's Dogs and Buns
TTITLE4=Balin' Again
TTITLE5=Do You Love Me Now
TTITLE6=Some roads
TTITLE7=Sharecroppin'
TTITLE8=Pistols and Rifles
TTITLE9=Your Sister Cried
TTITLE10=I Like Trains
TTITLE11=Indianna Road
TTITLE12=Restless Cowboys
TTITLE13=York Road
TTITLE14=Brand New Boy
TTITLE15=Charlene
TTITLE16=Tunnel
TTITLE17=Rainbow
EXTD=
EXTT0=
EXTT1=
EXTT2=
EXTT3=
EXTT4=
EXTT5=
EXTT6=
EXTT7=
EXTT8=
EXTT9=
EXTT10=
EXTT11=
EXTT12=
EXTT13=
EXTT14=
EXTT15=
EXTT16=
EXTT17=
PLAYORDER=
